
<svg version="1.1" xmlns="http://www.w3.org/2000/svg" xmlns:xlink="http://www.w3.org/1999/xlink" preserveAspectRatio="xMidYMid meet" viewBox="449 183 322 98">
<g data-item-type="image" data-item="Image" data-logo-item="" id="logo__item--logo_0" class="logo__item">
    <g class="logo__item__inner" transform="translate(447.312679659065 155) scale(0.8645533901558375 0.8645533901558375) rotate(0 0 0)">
        
<g>
	<g>
		<g>
			<path fill="#a72323" d="M108.6,49.2c-2.5-2.1-4.4-2.5-5.6-1l-7,8.3l-4.7,5.6L84,56l13.1-15.6c4.3-5.2,9.9-4.9,16.8,0.9l10,8.4     l10.6,8.9c6.8,5.7,8.1,11.2,3.8,16.3l-9.2,11l-8.8,10.5l-7.9,9.4c-4.4,5.2-10,5-16.8-0.8l-10.6-8.9l-10-8.4l-10.3-8.6l6-7.2     l11.2,9.3L91,89l9.5,8c2.5,2.1,4.4,2.5,5.6,1l7-8.3l4.6-5.5l4.6-5.5l7-8.3c1.2-1.4,0.5-3.2-2-5.4l-9.5-8L108.6,49.2z" data-part-id="logo__item--logo_0__0"></path>
		</g>
	</g>
	<g>
		<path fill="#a72323" d="M43.5,97.3c2.5,2.1,4.4,2.5,5.6,1l7-8.3l4.7-5.6l7.3,6.2l-13.1,15.6c-4.3,5.2-9.9,4.9-16.8-0.9l-10-8.4    l-10.6-8.9c-6.8-5.7-8.1-11.2-3.8-16.3l9.2-11L32,50.3l7.9-9.4c4.4-5.2,10-5,16.8,0.8l10.6,8.9l10,8.4l10.3,8.6l-6,7.2l-11.2-9.3    l-9.2-7.8l-9.5-8c-2.5-2.1-4.4-2.5-5.6-1l-7,8.3l-4.6,5.5l-4.6,5.5l-7,8.3c-1.2,1.4-0.5,3.2,2,5.4l9.5,8L43.5,97.3z" data-part-id="logo__item--logo_0__1"></path>
	</g>
	<path fill="#a72323" d="M26.3,49.3c0.4,5.5-3.8,10.3-9.3,10.6c-5.5,0.4-10.2-3.8-10.6-9.3C6,45.1,10.2,40.4,15.7,40   C21.2,39.7,25.9,43.8,26.3,49.3z" data-part-id="logo__item--logo_0__2"></path>
	<path fill="#a72323" d="M144.4,97.7c0.4,5.5-3.8,10.3-9.3,10.6c-5.5,0.4-10.2-3.8-10.6-9.3c-0.4-5.5,3.8-10.2,9.3-10.6   C139.3,88.1,144.1,92.2,144.4,97.7z" data-part-id="logo__item--logo_0__3"></path>
</g>

    </g>
</g>
</svg>